<mxfile host="Electron" agent="Mozilla/5.0 (Windows NT 10.0; Win64; x64) AppleWebKit/537.36 (KHTML, like Gecko) draw.io/26.0.4 Chrome/128.0.6613.186 Electron/32.2.5 Safari/537.36" version="26.0.4">
  <diagram name="Page-1" id="C9SvDIibT4Lvw6TILwR5">
    <mxGraphModel dx="2045" dy="1797" grid="1" gridSize="10" guides="1" tooltips="1" connect="1" arrows="1" fold="1" page="1" pageScale="1" pageWidth="850" pageHeight="1100" math="0" shadow="0">
      <root>
        <mxCell id="0" />
        <mxCell id="1" parent="0" />
        <mxCell id="ZShik9I5AffOzjFBGPpR-6" style="edgeStyle=orthogonalEdgeStyle;rounded=0;orthogonalLoop=1;jettySize=auto;html=1;entryX=0.5;entryY=0;entryDx=0;entryDy=0;" edge="1" parent="1" source="ZShik9I5AffOzjFBGPpR-1" target="ZShik9I5AffOzjFBGPpR-5">
          <mxGeometry relative="1" as="geometry" />
        </mxCell>
        <mxCell id="ZShik9I5AffOzjFBGPpR-22" value="user data" style="edgeLabel;html=1;align=center;verticalAlign=middle;resizable=0;points=[];" vertex="1" connectable="0" parent="ZShik9I5AffOzjFBGPpR-6">
          <mxGeometry x="-0.0333" y="-2" relative="1" as="geometry">
            <mxPoint as="offset" />
          </mxGeometry>
        </mxCell>
        <mxCell id="ZShik9I5AffOzjFBGPpR-1" value="&lt;p style=&quot;margin: 4px 0px 0px; text-align: center;&quot;&gt;1.0&lt;/p&gt;&lt;hr&gt;&lt;p style=&quot;margin: 0px; margin-left: 8px;&quot;&gt;&lt;br&gt;&lt;/p&gt;&lt;p style=&quot;margin: 0px; margin-left: 8px;&quot;&gt;user registration&lt;/p&gt;" style="verticalAlign=middle;align=center;overflow=fill;fontSize=12;fontFamily=Helvetica;html=1;rounded=1;fontStyle=1;strokeWidth=3;" vertex="1" parent="1">
          <mxGeometry x="270" y="-610" width="110" height="140" as="geometry" />
        </mxCell>
        <mxCell id="ZShik9I5AffOzjFBGPpR-3" style="edgeStyle=orthogonalEdgeStyle;rounded=0;orthogonalLoop=1;jettySize=auto;html=1;" edge="1" parent="1" source="ZShik9I5AffOzjFBGPpR-2" target="ZShik9I5AffOzjFBGPpR-1">
          <mxGeometry relative="1" as="geometry" />
        </mxCell>
        <mxCell id="ZShik9I5AffOzjFBGPpR-4" value="create new account" style="edgeLabel;html=1;align=center;verticalAlign=middle;resizable=0;points=[];" vertex="1" connectable="0" parent="ZShik9I5AffOzjFBGPpR-3">
          <mxGeometry x="-0.5705" y="1" relative="1" as="geometry">
            <mxPoint x="-24" y="-1" as="offset" />
          </mxGeometry>
        </mxCell>
        <mxCell id="ZShik9I5AffOzjFBGPpR-16" style="edgeStyle=orthogonalEdgeStyle;rounded=0;orthogonalLoop=1;jettySize=auto;html=1;exitX=0.5;exitY=0;exitDx=0;exitDy=0;entryX=1;entryY=0.5;entryDx=0;entryDy=0;" edge="1" parent="1" source="ZShik9I5AffOzjFBGPpR-2" target="ZShik9I5AffOzjFBGPpR-17">
          <mxGeometry relative="1" as="geometry">
            <mxPoint x="100" y="-812.8333333333333" as="targetPoint" />
          </mxGeometry>
        </mxCell>
        <mxCell id="ZShik9I5AffOzjFBGPpR-18" value="create" style="edgeLabel;html=1;align=center;verticalAlign=middle;resizable=0;points=[];" vertex="1" connectable="0" parent="ZShik9I5AffOzjFBGPpR-16">
          <mxGeometry x="-0.3886" y="-1" relative="1" as="geometry">
            <mxPoint as="offset" />
          </mxGeometry>
        </mxCell>
        <mxCell id="ZShik9I5AffOzjFBGPpR-2" value="user" style="rounded=1;whiteSpace=wrap;html=1;" vertex="1" parent="1">
          <mxGeometry x="390" y="-840" width="120" height="110" as="geometry" />
        </mxCell>
        <mxCell id="ZShik9I5AffOzjFBGPpR-5" value="D1&lt;span style=&quot;white-space: pre;&quot;&gt;&#x9;&lt;/span&gt;&amp;nbsp;users" style="html=1;dashed=0;whiteSpace=wrap;shape=mxgraph.dfd.dataStoreID;align=left;spacingLeft=3;points=[[0,0],[0.5,0],[1,0],[0,0.5],[1,0.5],[0,1],[0.5,1],[1,1]];" vertex="1" parent="1">
          <mxGeometry x="260" y="-350" width="100" height="30" as="geometry" />
        </mxCell>
        <mxCell id="ZShik9I5AffOzjFBGPpR-9" style="edgeStyle=orthogonalEdgeStyle;rounded=0;orthogonalLoop=1;jettySize=auto;html=1;entryX=0.5;entryY=1;entryDx=0;entryDy=0;" edge="1" parent="1" source="ZShik9I5AffOzjFBGPpR-8" target="ZShik9I5AffOzjFBGPpR-2">
          <mxGeometry relative="1" as="geometry" />
        </mxCell>
        <mxCell id="ZShik9I5AffOzjFBGPpR-14" value="display" style="edgeLabel;html=1;align=center;verticalAlign=middle;resizable=0;points=[];" vertex="1" connectable="0" parent="ZShik9I5AffOzjFBGPpR-9">
          <mxGeometry x="0.2167" relative="1" as="geometry">
            <mxPoint as="offset" />
          </mxGeometry>
        </mxCell>
        <mxCell id="ZShik9I5AffOzjFBGPpR-8" value="&lt;p style=&quot;margin: 4px 0px 0px; text-align: center;&quot;&gt;2.0&lt;/p&gt;&lt;hr&gt;&lt;p style=&quot;margin: 0px; margin-left: 8px;&quot;&gt;&lt;br&gt;&lt;/p&gt;&lt;p style=&quot;margin: 0px; margin-left: 8px;&quot;&gt;display&amp;nbsp;&lt;/p&gt;&lt;p style=&quot;margin: 0px; margin-left: 8px;&quot;&gt;destinations&lt;/p&gt;" style="verticalAlign=middle;align=center;overflow=fill;fontSize=12;fontFamily=Helvetica;html=1;rounded=1;fontStyle=1;strokeWidth=3;" vertex="1" parent="1">
          <mxGeometry x="395" y="-650" width="110" height="140" as="geometry" />
        </mxCell>
        <mxCell id="ZShik9I5AffOzjFBGPpR-11" style="edgeStyle=orthogonalEdgeStyle;rounded=0;orthogonalLoop=1;jettySize=auto;html=1;entryX=0.25;entryY=1;entryDx=0;entryDy=0;" edge="1" parent="1" source="ZShik9I5AffOzjFBGPpR-10" target="ZShik9I5AffOzjFBGPpR-8">
          <mxGeometry relative="1" as="geometry" />
        </mxCell>
        <mxCell id="ZShik9I5AffOzjFBGPpR-24" value="show destinations" style="edgeLabel;html=1;align=center;verticalAlign=middle;resizable=0;points=[];" vertex="1" connectable="0" parent="ZShik9I5AffOzjFBGPpR-11">
          <mxGeometry x="0.3449" y="-1" relative="1" as="geometry">
            <mxPoint as="offset" />
          </mxGeometry>
        </mxCell>
        <mxCell id="ZShik9I5AffOzjFBGPpR-31" style="edgeStyle=orthogonalEdgeStyle;rounded=0;orthogonalLoop=1;jettySize=auto;html=1;entryX=1;entryY=0.5;entryDx=0;entryDy=0;" edge="1" parent="1" source="ZShik9I5AffOzjFBGPpR-10" target="ZShik9I5AffOzjFBGPpR-5">
          <mxGeometry relative="1" as="geometry">
            <Array as="points">
              <mxPoint x="570" y="-335" />
            </Array>
          </mxGeometry>
        </mxCell>
        <mxCell id="ZShik9I5AffOzjFBGPpR-32" value="store destinations" style="edgeLabel;html=1;align=center;verticalAlign=middle;resizable=0;points=[];" vertex="1" connectable="0" parent="ZShik9I5AffOzjFBGPpR-31">
          <mxGeometry x="-0.2075" y="-1" relative="1" as="geometry">
            <mxPoint as="offset" />
          </mxGeometry>
        </mxCell>
        <mxCell id="ZShik9I5AffOzjFBGPpR-10" value="D2&lt;span style=&quot;white-space: pre;&quot;&gt;&#x9;&lt;/span&gt;&amp;nbsp;destinations" style="html=1;dashed=0;whiteSpace=wrap;shape=mxgraph.dfd.dataStoreID;align=left;spacingLeft=3;points=[[0,0],[0.5,0],[1,0],[0,0.5],[1,0.5],[0,1],[0.5,1],[1,1]];" vertex="1" parent="1">
          <mxGeometry x="520" y="-420" width="100" height="30" as="geometry" />
        </mxCell>
        <mxCell id="ZShik9I5AffOzjFBGPpR-13" style="edgeStyle=orthogonalEdgeStyle;rounded=0;orthogonalLoop=1;jettySize=auto;html=1;entryX=1;entryY=0.5;entryDx=0;entryDy=0;" edge="1" parent="1" source="ZShik9I5AffOzjFBGPpR-12" target="ZShik9I5AffOzjFBGPpR-10">
          <mxGeometry relative="1" as="geometry" />
        </mxCell>
        <mxCell id="ZShik9I5AffOzjFBGPpR-15" value="add" style="edgeLabel;html=1;align=center;verticalAlign=middle;resizable=0;points=[];" vertex="1" connectable="0" parent="ZShik9I5AffOzjFBGPpR-13">
          <mxGeometry x="-0.2722" y="2" relative="1" as="geometry">
            <mxPoint as="offset" />
          </mxGeometry>
        </mxCell>
        <mxCell id="ZShik9I5AffOzjFBGPpR-39" style="edgeStyle=orthogonalEdgeStyle;rounded=0;orthogonalLoop=1;jettySize=auto;html=1;entryX=0.5;entryY=1;entryDx=0;entryDy=0;" edge="1" parent="1" source="ZShik9I5AffOzjFBGPpR-12" target="ZShik9I5AffOzjFBGPpR-38">
          <mxGeometry relative="1" as="geometry">
            <Array as="points">
              <mxPoint x="770" y="-820" />
              <mxPoint x="605" y="-820" />
            </Array>
          </mxGeometry>
        </mxCell>
        <mxCell id="ZShik9I5AffOzjFBGPpR-12" value="admin" style="rounded=1;whiteSpace=wrap;html=1;" vertex="1" parent="1">
          <mxGeometry x="710" y="-780" width="120" height="110" as="geometry" />
        </mxCell>
        <mxCell id="ZShik9I5AffOzjFBGPpR-21" style="edgeStyle=orthogonalEdgeStyle;rounded=0;orthogonalLoop=1;jettySize=auto;html=1;entryX=0.5;entryY=0;entryDx=0;entryDy=0;" edge="1" parent="1" source="ZShik9I5AffOzjFBGPpR-17" target="ZShik9I5AffOzjFBGPpR-19">
          <mxGeometry relative="1" as="geometry" />
        </mxCell>
        <mxCell id="ZShik9I5AffOzjFBGPpR-23" value="trip information" style="edgeLabel;html=1;align=center;verticalAlign=middle;resizable=0;points=[];" vertex="1" connectable="0" parent="ZShik9I5AffOzjFBGPpR-21">
          <mxGeometry x="-0.2952" y="-1" relative="1" as="geometry">
            <mxPoint as="offset" />
          </mxGeometry>
        </mxCell>
        <mxCell id="ZShik9I5AffOzjFBGPpR-36" style="edgeStyle=orthogonalEdgeStyle;rounded=0;orthogonalLoop=1;jettySize=auto;html=1;entryX=0;entryY=0.5;entryDx=0;entryDy=0;" edge="1" parent="1" source="ZShik9I5AffOzjFBGPpR-17" target="ZShik9I5AffOzjFBGPpR-34">
          <mxGeometry relative="1" as="geometry">
            <Array as="points">
              <mxPoint x="-5" y="-975" />
            </Array>
          </mxGeometry>
        </mxCell>
        <mxCell id="ZShik9I5AffOzjFBGPpR-37" value="add a point" style="edgeLabel;html=1;align=center;verticalAlign=middle;resizable=0;points=[];" vertex="1" connectable="0" parent="ZShik9I5AffOzjFBGPpR-36">
          <mxGeometry x="0.0588" relative="1" as="geometry">
            <mxPoint as="offset" />
          </mxGeometry>
        </mxCell>
        <mxCell id="ZShik9I5AffOzjFBGPpR-17" value="&lt;p style=&quot;margin: 4px 0px 0px; text-align: center;&quot;&gt;3.0&lt;/p&gt;&lt;hr&gt;&lt;p style=&quot;margin: 0px; margin-left: 8px;&quot;&gt;&lt;br&gt;&lt;/p&gt;&lt;p style=&quot;margin: 0px; margin-left: 8px;&quot;&gt;create a trip&lt;/p&gt;" style="verticalAlign=middle;align=center;overflow=fill;fontSize=12;fontFamily=Helvetica;html=1;rounded=1;fontStyle=1;strokeWidth=3;" vertex="1" parent="1">
          <mxGeometry x="-60" y="-950" width="110" height="140" as="geometry" />
        </mxCell>
        <mxCell id="ZShik9I5AffOzjFBGPpR-26" style="edgeStyle=orthogonalEdgeStyle;rounded=0;orthogonalLoop=1;jettySize=auto;html=1;entryX=0;entryY=0.25;entryDx=0;entryDy=0;" edge="1" parent="1" source="ZShik9I5AffOzjFBGPpR-19" target="ZShik9I5AffOzjFBGPpR-25">
          <mxGeometry relative="1" as="geometry" />
        </mxCell>
        <mxCell id="ZShik9I5AffOzjFBGPpR-29" style="edgeStyle=orthogonalEdgeStyle;rounded=0;orthogonalLoop=1;jettySize=auto;html=1;entryX=0;entryY=0.5;entryDx=0;entryDy=0;" edge="1" parent="1" source="ZShik9I5AffOzjFBGPpR-19" target="ZShik9I5AffOzjFBGPpR-5">
          <mxGeometry relative="1" as="geometry">
            <Array as="points">
              <mxPoint x="10" y="-335" />
            </Array>
          </mxGeometry>
        </mxCell>
        <mxCell id="ZShik9I5AffOzjFBGPpR-30" value="store number of trips" style="edgeLabel;html=1;align=center;verticalAlign=middle;resizable=0;points=[];" vertex="1" connectable="0" parent="ZShik9I5AffOzjFBGPpR-29">
          <mxGeometry x="-0.2411" y="-1" relative="1" as="geometry">
            <mxPoint as="offset" />
          </mxGeometry>
        </mxCell>
        <mxCell id="ZShik9I5AffOzjFBGPpR-19" value="D3&lt;span style=&quot;white-space: pre;&quot;&gt;&#x9;&lt;/span&gt;&amp;nbsp;trips" style="html=1;dashed=0;whiteSpace=wrap;shape=mxgraph.dfd.dataStoreID;align=left;spacingLeft=3;points=[[0,0],[0.5,0],[1,0],[0,0.5],[1,0.5],[0,1],[0.5,1],[1,1]];" vertex="1" parent="1">
          <mxGeometry x="-55" y="-740" width="100" height="30" as="geometry" />
        </mxCell>
        <mxCell id="ZShik9I5AffOzjFBGPpR-27" style="edgeStyle=orthogonalEdgeStyle;rounded=0;orthogonalLoop=1;jettySize=auto;html=1;exitX=1;exitY=0.25;exitDx=0;exitDy=0;entryX=0;entryY=0.25;entryDx=0;entryDy=0;" edge="1" parent="1" source="ZShik9I5AffOzjFBGPpR-25" target="ZShik9I5AffOzjFBGPpR-2">
          <mxGeometry relative="1" as="geometry" />
        </mxCell>
        <mxCell id="ZShik9I5AffOzjFBGPpR-28" value="show trips" style="edgeLabel;html=1;align=center;verticalAlign=middle;resizable=0;points=[];" vertex="1" connectable="0" parent="ZShik9I5AffOzjFBGPpR-27">
          <mxGeometry x="0.1055" y="1" relative="1" as="geometry">
            <mxPoint as="offset" />
          </mxGeometry>
        </mxCell>
        <mxCell id="ZShik9I5AffOzjFBGPpR-25" value="&lt;p style=&quot;margin: 4px 0px 0px; text-align: center;&quot;&gt;4.0&lt;/p&gt;&lt;hr&gt;&lt;p style=&quot;margin: 0px; margin-left: 8px;&quot;&gt;&lt;br&gt;&lt;/p&gt;&lt;p style=&quot;margin: 0px; margin-left: 8px;&quot;&gt;display trips&lt;/p&gt;" style="verticalAlign=middle;align=center;overflow=fill;fontSize=12;fontFamily=Helvetica;html=1;rounded=1;fontStyle=1;strokeWidth=3;" vertex="1" parent="1">
          <mxGeometry x="100" y="-830" width="110" height="140" as="geometry" />
        </mxCell>
        <mxCell id="ZShik9I5AffOzjFBGPpR-34" value="D4&lt;span style=&quot;white-space: pre;&quot;&gt;&#x9;&lt;/span&gt;&amp;nbsp;reward transactions" style="html=1;dashed=0;whiteSpace=wrap;shape=mxgraph.dfd.dataStoreID;align=left;spacingLeft=3;points=[[0,0],[0.5,0],[1,0],[0,0.5],[1,0.5],[0,1],[0.5,1],[1,1]];" vertex="1" parent="1">
          <mxGeometry x="140" y="-990" width="140" height="30" as="geometry" />
        </mxCell>
        <mxCell id="ZShik9I5AffOzjFBGPpR-38" value="&lt;p style=&quot;margin: 4px 0px 0px; text-align: center;&quot;&gt;5.0&lt;/p&gt;&lt;hr&gt;&lt;p style=&quot;margin: 0px; margin-left: 8px;&quot;&gt;&lt;br&gt;&lt;/p&gt;&lt;p style=&quot;margin: 0px; margin-left: 8px;&quot;&gt;give reward&lt;/p&gt;" style="verticalAlign=middle;align=center;overflow=fill;fontSize=12;fontFamily=Helvetica;html=1;rounded=1;fontStyle=1;strokeWidth=3;" vertex="1" parent="1">
          <mxGeometry x="550" y="-990" width="110" height="140" as="geometry" />
        </mxCell>
        <mxCell id="ZShik9I5AffOzjFBGPpR-41" style="edgeStyle=orthogonalEdgeStyle;rounded=0;orthogonalLoop=1;jettySize=auto;html=1;entryX=0.75;entryY=0;entryDx=0;entryDy=0;" edge="1" parent="1" source="ZShik9I5AffOzjFBGPpR-40" target="ZShik9I5AffOzjFBGPpR-38">
          <mxGeometry relative="1" as="geometry" />
        </mxCell>
        <mxCell id="ZShik9I5AffOzjFBGPpR-40" value="D5&lt;span style=&quot;white-space: pre;&quot;&gt;&#x9;&lt;/span&gt;&amp;nbsp;reward type" style="html=1;dashed=0;whiteSpace=wrap;shape=mxgraph.dfd.dataStoreID;align=left;spacingLeft=3;points=[[0,0],[0.5,0],[1,0],[0,0.5],[1,0.5],[0,1],[0.5,1],[1,1]];" vertex="1" parent="1">
          <mxGeometry x="680" y="-1030" width="140" height="30" as="geometry" />
        </mxCell>
        <mxCell id="ZShik9I5AffOzjFBGPpR-42" style="edgeStyle=orthogonalEdgeStyle;rounded=0;orthogonalLoop=1;jettySize=auto;html=1;entryX=0.038;entryY=0.111;entryDx=0;entryDy=0;entryPerimeter=0;" edge="1" parent="1" source="ZShik9I5AffOzjFBGPpR-34" target="ZShik9I5AffOzjFBGPpR-38">
          <mxGeometry relative="1" as="geometry" />
        </mxCell>
        <mxCell id="ZShik9I5AffOzjFBGPpR-43" style="edgeStyle=orthogonalEdgeStyle;rounded=0;orthogonalLoop=1;jettySize=auto;html=1;entryX=0.75;entryY=0;entryDx=0;entryDy=0;" edge="1" parent="1" source="ZShik9I5AffOzjFBGPpR-38" target="ZShik9I5AffOzjFBGPpR-2">
          <mxGeometry relative="1" as="geometry" />
        </mxCell>
        <mxCell id="ZShik9I5AffOzjFBGPpR-44" value="display in profile" style="edgeLabel;html=1;align=center;verticalAlign=middle;resizable=0;points=[];" vertex="1" connectable="0" parent="ZShik9I5AffOzjFBGPpR-43">
          <mxGeometry x="0.2844" relative="1" as="geometry">
            <mxPoint as="offset" />
          </mxGeometry>
        </mxCell>
      </root>
    </mxGraphModel>
  </diagram>
</mxfile>
